<svg xmlns="http://www.w3.org/2000/svg" width="296" height="53" viewBox="0 0 296 53">
    <g fill="#000" fill-rule="evenodd">
        <path d="M119.945 17.99c-1.518 0-2.481.742-2.862 2.205L113.54 33.83c-.184.708-.15 1.235.105 1.562.255.331.76.499 1.497.499h13.267c1.518 0 2.481-.742 2.862-2.206l3.543-13.635c.185-.708.15-1.233-.105-1.561-.256-.332-.758-.499-1.497-.499h-13.267zm7.457 22.352h-13.268c-2.129 0-3.636-.555-4.48-1.65-.88-1.134-1.034-2.831-.458-5.044l3.525-13.56c1.113-4.284 3.96-6.549 8.23-6.549h13.267c2.13 0 3.636.555 4.484 1.65.878 1.136 1.03 2.833.455 5.044l-3.524 13.56c-1.113 4.285-3.96 6.549-8.231 6.549zM166.284 40.342h-2.218l-15.848-20.07-5.216 20.07h-3.906l6.965-26.803h3.65l.163.215 14.5 18.913 4.97-19.128h3.907zM211.764 24.193h12.894c1.518 0 2.481-.741 2.86-2.205l.504-1.938c.184-.707.15-1.232-.105-1.561-.256-.332-.76-.5-1.497-.5h-13.044l-1.612 6.204zm15.255 16.15h-4.633l-1.668-11.698h-10.113l-3.04 11.698h-4.39l6.966-26.804h17.285c2.128 0 3.638.554 4.483 1.65.877 1.136 1.03 2.833.455 5.044l-.482 1.861c-.98 3.76-3.177 5.923-6.544 6.434l1.681 11.815zM237.338 35.89h14.237c2.669 0 3.593-.737 4.293-3.433l2.846-10.954c.402-1.545.416-2.41.047-2.887-.332-.433-1.07-.626-2.383-.626H241.99l-4.652 17.9zm13.23 4.452H231.79l6.967-26.803h18.625c2.695 0 4.457.586 5.389 1.794.988 1.277 1.083 3.285.296 6.315l-2.858 10.99c-1.422 5.472-4.215 7.704-9.642 7.704zM275.72 17.99c-1.52 0-2.482.742-2.86 2.206l-3.545 13.634c-.185.708-.15 1.233.105 1.564.254.33.758.497 1.496.497h13.267c1.519 0 2.482-.742 2.863-2.206l3.542-13.634c.186-.709.15-1.234-.105-1.563-.253-.33-.758-.497-1.498-.497H275.72zm7.457 22.352h-13.269c-2.128 0-3.635-.554-4.482-1.65-.878-1.136-1.03-2.832-.454-5.044l3.522-13.56c1.115-4.285 3.96-6.55 8.23-6.55h13.27c2.128 0 3.637.556 4.482 1.651.879 1.135 1.03 2.83.456 5.045l-3.524 13.56c-1.115 4.285-3.961 6.548-8.231 6.548zM180.295 23.84h17.422l.987-3.822c.12-.459.202-1.082-.084-1.45-.285-.37-.914-.447-1.392-.447h-13.267c-1.494 0-2.363.67-2.735 2.108l-.931 3.61zm17.821 16.502h-4.66l3.046-11.79h-17.42l-3.037 11.79h-4.66l5.225-20.286c1.146-4.412 3.959-6.647 8.357-6.647h13.267c2.17 0 3.713.571 4.586 1.7.904 1.171 1.064 2.905.477 5.156l-5.181 20.077zM77.27 40.342H56.56l6.966-26.803h4.42l-5.81 22.352h16.292zM102.776 40.342H81.523l6.966-26.803h21.253l-1.156 4.451H91.723l-1.554 5.98h16.007l-1.157 4.45H89.011l-1.942 7.471h16.864zM38.89 39.837C22.901 35.56 15.954 28.944 15.954 28.944s6.85 11.573 17.604 16.138l.603.252.176.06v-.005c.198.077.4.153.604.225a.771.771 0 0 0 .88-.237l3.52-4.266a.792.792 0 0 0-.453-1.274M43.066 22.97a22.244 22.244 0 0 0-2.612-.182c-6.47 0-23.62 3.099-23.62 3.099l26.13 3.706.035.006.037-.015a.462.462 0 0 0 .115-.072c.259-.183.285-.469.294-.589.08-.78.33-3.472.43-4.928a.974.974 0 0 0-.809-1.024M16.833 21.946c8.147-7.472 22.173-10.113 23.604-10.416a.801.801 0 0 0 .578-.453.804.804 0 0 0-.052-.752c-.515-.822-2.471-3.49-3.226-4.428-.205-.257-.54-.357-.881-.257l-.109.038-.06.021v-.016l-.833.315C25.714 9.864 19.51 18.106 16.833 21.946M12.726 21.946c.114-.939.582-3.042.8-3.68 2.712-7.918 8.646-13.821 11.07-15.992a.8.8 0 0 0 .207-.919.784.784 0 0 0-.799-.468l-5.133.422a1.695 1.695 0 0 0-.524.11.462.462 0 0 0-.225.164l-.851 1.098c-.248.32-.495.669-.705 1-.045.06-.084.12-.096.147l-.428.707c-1.305 2.27-4.02 8.871-3.316 17.41M10.137 22.332S7.508 17.514 7.207 11.3l-.018-.638a.884.884 0 0 0-.619-.824.877.877 0 0 0-.97.352c-1.047 1.591-2.102 4.515-2.145 4.635a.872.872 0 0 0 .016.67c1.287 3.027 6.666 6.837 6.666 6.837M2.75 34.628a.832.832 0 0 0-.153.63c.078.54.51 3.315 1.192 5.003.27.624.874.528.895.526.51-.011.712-.777.893-1.3 1.251-4.606 4.432-10.542 4.432-10.542s-5.08 2.74-7.259 5.683M23.528 49.025l-.376-.398-.036-.04c-9.177-9.045-10.29-19.223-10.29-19.223s-2.039 14.848 5.686 23.464c.006.005.139.107.245.125l-.001.001.238.045 5.841-.94.136-.04a.757.757 0 0 0 .396-.4.794.794 0 0 0-.171-.896 42.234 42.234 0 0 1-1.668-1.698M9.461 25.296l-2.638-.57c-.569-.127-3.44-.816-4.64-1.9a2.78 2.78 0 0 1-.235-.217.85.85 0 0 0-.827-.251l-.036.003A.88.88 0 0 0 .474 23c-.194.766-.474 3.588-.41 4.146.037.189.156.34.387.486l.26.076.156-.021c1.24-.179 4.706-1.25 6.137-1.7l2.457-.69z"/>
    </g>
</svg>
